<svg width="43" height="43" viewBox="0 0 43 43" fill="none" xmlns="http://www.w3.org/2000/svg">
<circle cx="21.5" cy="21.5" r="21.5" fill="#C9BD80"/>
<circle cx="21.5" cy="21.5" r="18.5" fill="#193A59"/>
<path d="M8.1224 21.5H8.9999C9.13251 21.5 9.25968 21.5527 9.35345 21.6464C9.44722 21.7402 9.4999 21.8674 9.4999 22C9.49792 24.1645 10.0593 26.2922 11.1288 28.1739C12.1984 30.0557 13.7392 31.6267 15.5999 32.7325C15.7544 32.1099 16.0999 31.5513 16.5879 31.135L16.6819 31.0535C15.1008 30.1306 13.7899 28.8085 12.8804 27.2196C11.971 25.6307 11.4949 23.8307 11.4999 22C11.4999 21.8674 11.5526 21.7402 11.6463 21.6464C11.7401 21.5527 11.8673 21.5 11.9999 21.5H12.8774C12.9009 21.5011 12.9242 21.4949 12.944 21.4823C12.9639 21.4696 12.9794 21.4512 12.9884 21.4295C12.9987 21.4093 13.0024 21.3864 12.9991 21.364C12.9958 21.3416 12.9856 21.3208 12.9699 21.3045L10.5929 18.542C10.5813 18.5288 10.567 18.5182 10.551 18.511C10.5351 18.5038 10.5177 18.5 10.5001 18.5C10.4826 18.5 10.4652 18.5038 10.4492 18.511C10.4333 18.5182 10.419 18.5288 10.4074 18.542L8.0299 21.3045C8.01421 21.3208 8.004 21.3416 8.00069 21.364C7.99737 21.3864 8.00111 21.4093 8.0114 21.4295C8.02041 21.4512 8.03591 21.4696 8.05577 21.4823C8.07563 21.4949 8.09889 21.5011 8.1224 21.5Z" fill="white"/>
<path d="M12.8691 16.5835L12.9506 16.6785C13.8724 15.0976 15.1938 13.7869 16.7822 12.8779C18.3705 11.969 20.17 11.4938 22.0001 11.5C22.1327 11.5 22.2599 11.5527 22.3536 11.6465C22.4474 11.7402 22.5001 11.8674 22.5001 12V12.8775C22.499 12.901 22.5052 12.9243 22.5178 12.9441C22.5304 12.964 22.5488 12.9795 22.5706 12.9885C22.5908 12.9987 22.6136 13.0024 22.636 12.9991C22.6584 12.9958 22.6792 12.9856 22.6956 12.97L25.4576 10.593C25.4708 10.5814 25.4815 10.5671 25.4888 10.5511C25.4961 10.535 25.4998 10.5176 25.4998 10.5C25.4998 10.4824 25.4961 10.465 25.4888 10.4489C25.4815 10.4329 25.4708 10.4186 25.4576 10.407L22.6956 8.03C22.6791 8.01451 22.6583 8.00443 22.636 8.00112C22.6136 7.99781 22.5908 8.00144 22.5706 8.0115C22.5488 8.02052 22.5304 8.03601 22.5178 8.05587C22.5052 8.07573 22.499 8.099 22.5001 8.1225V9C22.5001 9.13261 22.4474 9.25979 22.3536 9.35356C22.2599 9.44732 22.1327 9.5 22.0001 9.5C19.8356 9.49788 17.7078 10.0592 15.826 11.1287C13.9442 12.1983 12.3733 13.7392 11.2676 15.6C11.89 15.7551 12.4491 16.0994 12.8676 16.5855L12.8691 16.5835Z" fill="white"/>
<path d="M21.4295 31.0115C21.4138 31.0043 21.3967 31.0004 21.3795 31C21.3521 31.0006 21.3259 31.0113 21.306 31.03L18.543 33.407C18.5298 33.4186 18.5192 33.4329 18.512 33.449C18.5047 33.465 18.501 33.4824 18.501 33.5C18.501 33.5176 18.5047 33.535 18.512 33.551C18.5192 33.567 18.5298 33.5814 18.543 33.593L21.3055 35.97C21.3219 35.9855 21.3427 35.9956 21.3651 35.9989C21.3874 36.0022 21.4102 35.9986 21.4305 35.9885C21.452 35.9793 21.4702 35.9638 21.4826 35.9439C21.4951 35.9241 21.5011 35.9009 21.5 35.8775V35C21.5 34.8674 21.5526 34.7402 21.6464 34.6464C21.7402 34.5527 21.8673 34.5 22 34.5C24.1645 34.502 26.2923 33.9407 28.1742 32.8712C30.056 31.8016 31.6271 30.2607 32.733 28.4C32.1105 28.2423 31.5518 27.8966 31.133 27.41L31.0555 27.3205C30.1321 28.9014 28.8095 30.212 27.2203 31.121C25.631 32.0301 23.8308 32.5056 22 32.5C21.8673 32.5 21.7402 32.4473 21.6464 32.3535C21.5526 32.2598 21.5 32.1326 21.5 32V31.1225C21.501 31.099 21.4948 31.0757 21.4822 31.0559C21.4696 31.036 21.4512 31.0205 21.4295 31.0115Z" fill="white"/>
<path d="M32.4998 22C32.4998 22.1326 32.4472 22.2598 32.3534 22.3535C32.2596 22.4473 32.1325 22.5 31.9998 22.5H31.1223C31.0988 22.4989 31.0756 22.5051 31.0557 22.5177C31.0359 22.5303 31.0204 22.5488 31.0113 22.5705C31.0011 22.5907 30.9973 22.6135 31.0006 22.6359C31.0039 22.6583 31.0142 22.6792 31.0298 22.6955L33.4068 25.4575C33.4164 25.4735 33.43 25.4868 33.4463 25.4961C33.4625 25.5053 33.4809 25.5102 33.4996 25.5102C33.5183 25.5102 33.5367 25.5053 33.5529 25.4961C33.5692 25.4868 33.5828 25.4735 33.5923 25.4575L35.9698 22.695C35.9855 22.6787 35.9957 22.6578 35.9991 22.6354C36.0024 22.613 35.9986 22.5902 35.9883 22.57C35.9793 22.5483 35.9637 22.53 35.9439 22.5175C35.924 22.505 35.9008 22.4989 35.8773 22.5H34.9998C34.8672 22.5 34.7401 22.4473 34.6463 22.3535C34.5525 22.2598 34.4998 22.1326 34.4998 22C34.502 19.8354 33.9407 17.7076 32.8712 15.8257C31.8016 13.9438 30.2607 12.3727 28.3998 11.267C28.2424 11.8895 27.8966 12.4482 27.4098 12.867L27.3193 12.945C28.9004 13.8682 30.2112 15.1906 31.1203 16.7798C32.0295 18.369 32.5052 20.1691 32.4998 22Z" fill="white"/>
</svg>
