<svg width="20" height="20" viewBox="0 0 20 20" fill="none" xmlns="http://www.w3.org/2000/svg">
<path d="M19.2206 9.61079L15.81 6.09985C15.4647 5.74438 14.9033 5.74438 14.558 6.09985C14.2127 6.45532 14.2127 7.03319 14.558 7.38866L16.4599 9.34647H0.885417C0.396667 9.34647 0 9.7548 0 10.2579C0 10.7611 0.396667 11.1694 0.885417 11.1694H16.4599L14.4287 13.2603C14.0834 13.6157 14.0834 14.1936 14.4287 14.5491C14.7741 14.9045 15.3354 14.9045 15.6807 14.5491L19.2206 10.9051C19.3942 10.7264 19.4792 10.4931 19.4792 10.2579C19.4792 10.0228 19.3942 9.78944 19.2206 9.61079Z" fill="#15100D"/>
</svg>
