<svg width="22" height="18" viewBox="0 0 22 18" fill="none" xmlns="http://www.w3.org/2000/svg">
<path d="M18.8571 10.7143C18.8571 10.6875 18.8571 10.6607 18.8438 10.6339L11.1429 4.28571L3.44196 10.6339C3.44196 10.6607 3.42857 10.6875 3.42857 10.7143V17.1429C3.42857 17.6116 3.81696 18 4.28571 18H9.42857V12.8571H12.8571V18H18C18.4688 18 18.8571 17.6116 18.8571 17.1429V10.7143ZM21.8438 9.79018C21.9911 9.61607 21.9643 9.33482 21.7902 9.1875L18.8571 6.75V1.28571C18.8571 1.04464 18.6696 0.857142 18.4286 0.857142H15.8571C15.6161 0.857142 15.4286 1.04464 15.4286 1.28571V3.89732L12.1607 1.16518C11.5982 0.696427 10.6875 0.696427 10.125 1.16518L0.495536 9.1875C0.321429 9.33482 0.294643 9.61607 0.441964 9.79018L1.27232 10.7812C1.33929 10.8616 1.44643 10.9152 1.55357 10.9286C1.67411 10.942 1.78125 10.9018 1.875 10.8348L11.1429 3.10714L20.4107 10.8348C20.4911 10.9018 20.5848 10.9286 20.692 10.9286C20.7054 10.9286 20.7188 10.9286 20.7321 10.9286C20.8393 10.9152 20.9464 10.8616 21.0134 10.7812L21.8438 9.79018Z" fill="#C9BD80"/>
</svg>
