<svg width="43" height="43" viewBox="0 0 43 43" fill="none" xmlns="http://www.w3.org/2000/svg">
<circle cx="21.5" cy="21.5" r="21.5" fill="#C9BD80"/>
<circle cx="21.5" cy="21.5" r="18.5" fill="#193A59"/>
<g clip-path="url(#clip0_339_1786)">
<path d="M12.1716 29.2246C11.9428 29.4534 11.9428 29.8244 12.1716 30.0532L13.9468 31.8284C14.1756 32.0572 14.5466 32.0572 14.7754 31.8284L25.1688 21.4349L22.5649 18.8312L12.1716 29.2246Z" fill="white"/>
<path d="M30.3782 16.2255L31.0931 15.5106C31.322 15.2818 31.322 14.9108 31.0931 14.6819L29.318 12.9068C29.0892 12.678 28.7182 12.678 28.4893 12.9068L27.7744 13.6217C28.2627 13.9934 28.727 14.398 29.1646 14.8356C29.6021 15.2731 30.0066 15.7373 30.3782 16.2255Z" fill="white"/>
<path d="M28.3357 15.6643C26.1802 13.5086 23.0684 12 19.4895 12H18.8619C18.5901 12 18.3541 12.1868 18.2916 12.4513C18.2292 12.7158 18.3568 12.9885 18.5999 13.11L22.2793 14.9495C23.4064 15.5132 23.8888 16.8549 23.393 18.0024L23.3934 18.0025L25.9974 20.6062L25.9974 20.6068C27.1453 20.1107 28.4868 20.5939 29.0502 21.7204L30.8899 25.4C30.9428 25.5057 31.1613 25.7997 31.5486 25.7083C31.8131 25.6459 31.9999 25.4098 31.9999 25.138V24.5104C31.9999 20.9298 30.4897 17.8181 28.3357 15.6643Z" fill="white"/>
</g>
<defs>
<clipPath id="clip0_339_1786">
<rect width="20" height="20" fill="white" transform="translate(12 12)"/>
</clipPath>
</defs>
</svg>
