<svg width="43" height="43" viewBox="0 0 43 43" fill="none" xmlns="http://www.w3.org/2000/svg">
<circle cx="21.5" cy="21.5" r="21.5" fill="white"/>
<circle cx="21.5" cy="21.5" r="18.5" fill="#C9BD80"/>
<path d="M22 32C27.5228 32 32 27.5229 32 22C32 16.4771 27.5228 12 22 12C16.4771 12 12 16.4771 12 22C12 27.5229 16.4771 32 22 32ZM20.0089 20.0089L27.1102 16.8897L23.9911 23.9911L16.8898 27.1102L20.0089 20.0089Z" fill="#193A59"/>
<path d="M22.0002 23.033C22.6337 23.033 23.1473 22.5194 23.1473 21.8859C23.1473 21.2523 22.6337 20.7387 22.0002 20.7387C21.3666 20.7387 20.853 21.2523 20.853 21.8859C20.853 22.5194 21.3666 23.033 22.0002 23.033Z" fill="#193A59"/>
</svg>
