<svg width="19" height="19" viewBox="0 0 19 19" fill="none" xmlns="http://www.w3.org/2000/svg">
<g clip-path="url(#clip0_71:477)">
<path d="M17.2427 4.01631C17.2424 4.01018 17.2417 4.00406 17.2407 3.99797C17.2169 3.96405 17.1878 3.93485 17.1633 3.9016C16.9859 3.65995 16.7981 3.42737 16.5999 3.20382C16.5456 3.14273 16.4913 3.08231 16.4357 3.02258C16.2316 2.80403 16.0176 2.59563 15.7936 2.39745C15.7522 2.36078 15.7135 2.3228 15.6721 2.28681C15.12 1.81388 14.5156 1.40575 13.8706 1.07048C13.8448 1.05692 13.8177 1.04538 13.7912 1.03178C13.504 0.885818 13.2095 0.754613 12.9088 0.638759C12.8409 0.614339 12.7791 0.591232 12.7147 0.570869C12.4472 0.474503 12.1757 0.390108 11.9001 0.317684C11.8187 0.295969 11.7372 0.273578 11.6544 0.254567C11.3829 0.19145 11.1114 0.143247 10.8338 0.103873C10.7496 0.0916631 10.6668 0.0753569 10.582 0.0651754C9.86691 -0.0217251 9.14399 -0.0217251 8.42889 0.0651754C8.34406 0.0753569 8.26126 0.0916631 8.17706 0.103873C7.89946 0.143247 7.62523 0.19145 7.35642 0.254567C7.27362 0.273578 7.19216 0.295969 7.11071 0.317684C6.83331 0.390068 6.56183 0.474463 6.29619 0.570869C6.2283 0.593936 6.16654 0.617043 6.10207 0.638759C5.80144 0.754613 5.50689 0.885779 5.21966 1.03178C5.19317 1.04534 5.16605 1.05688 5.14024 1.07048C4.49312 1.40539 3.88664 1.81349 3.33267 2.28681C3.29126 2.32276 3.25257 2.36078 3.21116 2.39745C2.9849 2.59655 2.77085 2.80495 2.56905 3.02258C2.51341 3.08231 2.45909 3.14273 2.4048 3.20382C2.20614 3.42689 2.01834 3.65948 1.84144 3.90156C1.81702 3.93481 1.78782 3.96401 1.76404 3.99793C1.76094 4.00386 1.75819 4.00998 1.75589 4.01627C-0.585296 7.29729 -0.585296 11.7028 1.75589 14.9837C1.75819 14.99 1.7609 14.9962 1.76404 15.0021C1.78778 15.036 1.81698 15.0652 1.84144 15.0984C2.01838 15.3401 2.20614 15.5727 2.4048 15.7962C2.45909 15.8573 2.51341 15.9177 2.56905 15.9775C2.7736 16.196 2.98761 16.4044 3.21116 16.6026C3.25257 16.6393 3.29126 16.6773 3.33267 16.7132C3.88469 17.1862 4.48914 17.5943 5.13411 17.9296C5.15992 17.9431 5.18705 17.9547 5.21354 17.9683C5.50076 18.1142 5.79527 18.2454 6.09594 18.3613C6.16383 18.3857 6.2256 18.4088 6.29007 18.4292C6.55749 18.5255 6.82901 18.6099 7.10459 18.6824C7.18604 18.7041 7.26749 18.7265 7.35029 18.7455C7.62181 18.8086 7.89329 18.8568 8.17094 18.8962C8.25509 18.9084 8.3379 18.9247 8.42277 18.9349C9.13782 19.0218 9.86075 19.0218 10.5758 18.9349C10.6607 18.9247 10.7435 18.9084 10.8277 18.8962C11.1053 18.8568 11.3795 18.8086 11.6483 18.7455C11.7311 18.7265 11.8126 18.7041 11.894 18.6824C12.1719 18.61 12.4434 18.5256 12.7085 18.4292C12.7764 18.4061 12.8382 18.383 12.9027 18.3613C13.2033 18.2454 13.4978 18.1143 13.7851 17.9683C13.8116 17.9547 13.8387 17.9432 13.8645 17.9296C14.5095 17.5943 15.1139 17.1862 15.6659 16.7132C15.7073 16.6773 15.746 16.6393 15.7874 16.6026C16.0137 16.4039 16.2278 16.1956 16.4296 15.9775C16.4852 15.9177 16.5395 15.8573 16.5938 15.7962C16.7925 15.5727 16.9803 15.3401 17.1572 15.0984C17.1816 15.0652 17.2108 15.036 17.2346 15.0021C17.2377 14.9962 17.2404 14.99 17.2427 14.9837C19.5839 11.7028 19.5839 7.29733 17.2427 4.01631ZM16.4682 5.30056C17.1174 6.36966 17.5094 7.57489 17.6133 8.82133H13.5475C13.4977 8.01254 13.3705 7.21043 13.1674 6.42598C14.3159 6.21089 15.4276 5.83187 16.4682 5.30056ZM11.2295 1.54221C11.2675 1.55104 11.3042 1.56324 11.3422 1.57207C11.5852 1.62911 11.8262 1.69425 12.0617 1.7757C12.0977 1.78791 12.133 1.80219 12.1683 1.81508C12.4018 1.89653 12.6319 1.98681 12.8572 2.0866C12.8966 2.10493 12.9353 2.12529 12.9747 2.14363C13.1905 2.24636 13.4014 2.35744 13.6073 2.47691L13.743 2.55904C13.9385 2.67851 14.1286 2.80634 14.3132 2.94256C14.3607 2.97716 14.4082 3.01045 14.4551 3.04843C14.6361 3.18417 14.8094 3.32965 14.975 3.48488C15.0184 3.52425 15.0632 3.56295 15.106 3.60368C15.2798 3.76861 15.4454 3.94305 15.6056 4.12361C15.6259 4.14735 15.6476 4.16907 15.668 4.1915C14.7489 4.6295 13.7753 4.94226 12.7731 5.12139C12.3088 3.84505 11.6955 2.62797 10.9459 1.49543C11.0401 1.51238 11.1365 1.52188 11.2295 1.54221ZM6.81211 8.82129C6.86564 8.08687 6.99068 7.35941 7.18544 6.64925C7.9545 6.74061 8.72829 6.78591 9.50276 6.78499C10.2779 6.78475 11.0525 6.7383 11.8221 6.64583C12.0165 7.35714 12.1409 8.08576 12.1934 8.82129H6.81211ZM12.1934 10.1788C12.1398 10.9133 12.0148 11.6407 11.82 12.3509C11.051 12.2595 10.2772 12.2142 9.50272 12.2151C8.72758 12.2143 7.95311 12.2596 7.18337 12.3509C6.98917 11.6407 6.86484 10.9132 6.81207 10.1788H12.1934ZM9.50272 1.79746C10.2752 2.89225 10.9105 4.07763 11.3945 5.32705C10.7661 5.39379 10.1347 5.42732 9.50272 5.42751C8.87151 5.42676 8.24074 5.39303 7.61302 5.32638C8.0976 4.07779 8.73215 2.8928 9.50272 1.79746ZM3.40064 4.12289C3.56016 3.94233 3.72644 3.76789 3.9002 3.60296C3.94296 3.56223 3.98778 3.52354 4.03121 3.48416C4.19865 3.33168 4.37197 3.1862 4.55114 3.04771C4.59799 3.01172 4.64548 2.97982 4.69301 2.94184C4.87763 2.8061 5.06769 2.67824 5.26317 2.55833L5.39891 2.4762C5.60481 2.35585 5.81568 2.24473 6.03151 2.14291C6.07089 2.12458 6.10959 2.10422 6.14896 2.08588C6.3743 1.98407 6.60442 1.89378 6.83792 1.81436C6.8732 1.80148 6.90581 1.7872 6.94447 1.77499C7.17999 1.69624 7.41962 1.63109 7.66397 1.57136C7.70199 1.56253 7.73862 1.55032 7.77732 1.54217C7.87031 1.5218 7.96671 1.5123 8.06105 1.49532C7.31112 2.62804 6.69761 3.84537 6.23312 5.12195C5.23092 4.94282 4.25723 4.63006 3.33819 4.19206C3.35856 4.16835 3.38027 4.14664 3.40064 4.12289ZM2.53724 5.30056C3.5777 5.83183 4.68911 6.21085 5.83739 6.42598C5.6346 7.21047 5.50753 8.01258 5.45797 8.82133H1.39218C1.49614 7.57489 1.88813 6.36966 2.53724 5.30056ZM2.53724 13.6996C1.88809 12.6305 1.4961 11.4253 1.39218 10.1788H5.45797C5.50776 10.9876 5.63503 11.7897 5.83807 12.5742C4.68959 12.7892 3.57794 13.1683 2.53724 13.6996ZM7.77597 17.4579C7.73795 17.4491 7.70132 17.4369 7.6633 17.4281C7.42029 17.371 7.17932 17.3059 6.94379 17.2244C6.9078 17.2122 6.87252 17.1979 6.8372 17.1851C6.60371 17.1036 6.37363 17.0133 6.14824 16.9135C6.10887 16.8952 6.07017 16.8748 6.0308 16.8565C5.81496 16.7538 5.60409 16.6427 5.39819 16.5232L5.26245 16.4411C5.06698 16.3216 4.87691 16.1938 4.69229 16.0576C4.64476 16.023 4.59728 15.9897 4.55043 15.9517C4.36943 15.816 4.1961 15.6705 4.03049 15.5153C3.98706 15.4759 3.94224 15.4372 3.89949 15.3965C3.72573 15.2315 3.56012 15.0571 3.39992 14.8765C3.37956 14.8528 3.35784 14.8311 3.33748 14.8086C4.25656 14.3706 5.2302 14.0579 6.2324 13.8787C6.69669 15.1551 7.31001 16.3722 8.05962 17.5047C7.96532 17.4878 7.86895 17.4783 7.77597 17.4579ZM9.50272 17.2027C8.73028 16.1079 8.09497 14.9225 7.611 13.6731C8.86805 13.5378 10.136 13.5378 11.3931 13.6731L11.3924 13.6738C10.9079 14.9223 10.2733 16.1073 9.50272 17.2027ZM15.6049 14.8772C15.4453 15.0578 15.279 15.2322 15.1053 15.3972C15.0625 15.4379 15.0177 15.4766 14.9743 15.516C14.8068 15.6689 14.6335 15.8144 14.4543 15.9524C14.4075 15.9884 14.36 16.0237 14.3125 16.0583C14.1279 16.194 13.9378 16.3219 13.7423 16.4418L13.6066 16.5239C13.4011 16.6438 13.1902 16.7549 12.974 16.8572C12.9346 16.8756 12.8959 16.8959 12.8565 16.9143C12.6312 17.0161 12.4011 17.1063 12.1676 17.1858C12.1323 17.1987 12.0997 17.2129 12.061 17.2251C11.8255 17.3039 11.5859 17.369 11.3415 17.4288C11.3035 17.4376 11.2669 17.4498 11.2282 17.458C11.1352 17.4783 11.0388 17.4878 10.9444 17.5048C11.694 16.3723 12.3074 15.1552 12.7717 13.8789C13.7739 14.058 14.7475 14.3708 15.6666 14.8088C15.6469 14.8318 15.6252 14.8535 15.6049 14.8772ZM16.4682 13.6996C15.4278 13.1683 14.3164 12.7893 13.1681 12.5742C13.3709 11.7897 13.498 10.9876 13.5475 10.1788H17.6133C17.5093 11.4252 17.1174 12.6305 16.4682 13.6996Z" fill="white"/>
</g>
<defs>
<clipPath id="clip0_71:477">
<rect width="19" height="19" fill="white"/>
</clipPath>
</defs>
</svg>
