<svg width="70" height="70" viewBox="0 0 70 70" fill="none" xmlns="http://www.w3.org/2000/svg">
<path d="M59.8595 0H10.1404C9.57396 0 9.11499 0.459102 9.11499 1.02539V49.7328C9.11499 50.2991 9.57396 50.7582 10.1404 50.7582C10.7068 50.7582 11.1658 50.2991 11.1658 49.7328V2.05078H58.8341V8.49707C58.8341 9.06336 59.2931 9.52246 59.8595 9.52246C60.4259 9.52246 60.8849 9.06336 60.8849 8.49707V1.02539C60.8849 0.459102 60.4259 0 59.8595 0V0Z" fill="white"/>
<path d="M59.8595 12.2568C59.2931 12.2568 58.8341 12.7159 58.8341 13.2822V67.9492H11.1658V54.518C11.1658 53.9517 10.7068 53.4926 10.1404 53.4926C9.57396 53.4926 9.11499 53.9517 9.11499 54.518V68.9746C9.11499 69.5409 9.57396 70 10.1404 70H59.8595C60.4259 70 60.8849 69.5409 60.8849 68.9746V13.2822C60.8849 12.7159 60.4259 12.2568 59.8595 12.2568Z" fill="white"/>
<path d="M13.5347 21.3273C13.5347 25.7004 17.0924 29.2581 21.4654 29.2581C25.8385 29.2581 29.3962 25.7004 29.3962 21.3273C29.3962 16.9542 25.8385 13.3965 21.4654 13.3965C17.0924 13.3965 13.5347 16.9542 13.5347 21.3273ZM21.4654 27.2073C18.2232 27.2073 15.5854 24.5696 15.5854 21.3273C15.5854 18.4349 17.6852 16.0254 20.4401 15.5387V21.3273C20.4401 21.8936 20.899 22.3527 21.4654 22.3527H27.2541C26.7673 25.1076 24.3579 27.2073 21.4654 27.2073ZM27.2541 20.3019H22.4908V15.5387C24.9124 15.9666 26.8262 17.8804 27.2541 20.3019Z" fill="white"/>
<path d="M15.1123 59.1104C14.5459 59.1104 14.0869 59.5695 14.0869 60.1357V64.5552C14.0869 65.1215 14.5459 65.5806 15.1123 65.5806H21.7415C22.3079 65.5806 22.7669 65.1215 22.7669 64.5552V60.1357C22.7669 59.5695 22.3079 59.1104 21.7415 59.1104H15.1123ZM20.7161 63.5298H16.1377V61.1611H20.7161V63.5298Z" fill="white"/>
<path d="M26.1611 65.5805H32.7902C33.3566 65.5805 33.8156 65.1214 33.8156 64.5551V53.5065C33.8156 52.9402 33.3566 52.4811 32.7902 52.4811H26.1611C25.5947 52.4811 25.1357 52.9402 25.1357 53.5065V64.5551C25.1357 65.1214 25.5947 65.5805 26.1611 65.5805ZM27.1865 54.5319H31.7648V63.5297H27.1865V54.5319Z" fill="white"/>
<path d="M37.2097 44.1946C36.6433 44.1946 36.1843 44.6537 36.1843 45.22V64.5552C36.1843 65.1215 36.6433 65.5806 37.2097 65.5806H43.8388C44.4052 65.5806 44.8642 65.1215 44.8642 64.5552V45.22C44.8642 44.6537 44.4052 44.1946 43.8388 44.1946H37.2097ZM42.8134 63.5298H38.2351V46.2454H42.8134V63.5298Z" fill="white"/>
<path d="M54.8872 44.3379C55.4536 44.3379 55.9125 43.8788 55.9125 43.3125V39.6963C55.9125 39.13 55.4536 38.6709 54.8872 38.6709H48.259C47.6926 38.6709 47.2336 39.13 47.2336 39.6963V64.5545C47.2336 65.1208 47.6926 65.5799 48.259 65.5799H54.887C55.4534 65.5799 55.9124 65.1208 55.9124 64.5545V48.0977C55.9124 47.5314 55.4534 47.0723 54.887 47.0723C54.3206 47.0723 53.8616 47.5314 53.8616 48.0977V63.5291H49.2844V40.7217H53.8616V43.3125C53.8618 43.8788 54.3207 44.3379 54.8872 44.3379Z" fill="white"/>
<path d="M46.0485 4.41949H23.9512C23.3847 4.41949 22.9258 4.8786 22.9258 5.44489V9.86432C22.9258 10.4306 23.3847 10.8897 23.9512 10.8897H46.0486C46.615 10.8897 47.074 10.4306 47.074 9.86432V5.44489C47.0739 4.8786 46.6149 4.41949 46.0485 4.41949ZM45.0231 8.83893H24.9766V6.47028H45.0232V8.83893H45.0231Z" fill="white"/>
<path d="M55.44 13.3965H35C34.4336 13.3965 33.9746 13.8556 33.9746 14.4219C33.9746 14.9882 34.4336 15.4473 35 15.4473H55.44C56.0064 15.4473 56.4654 14.9882 56.4654 14.4219C56.4654 13.8556 56.0063 13.3965 55.44 13.3965Z" fill="white"/>
<path d="M55.44 18.0002H35C34.4336 18.0002 33.9746 18.4593 33.9746 19.0256C33.9746 19.5919 34.4336 20.051 35 20.051H55.44C56.0064 20.051 56.4654 19.5919 56.4654 19.0256C56.4654 18.4593 56.0063 18.0002 55.44 18.0002Z" fill="white"/>
<path d="M56.4654 23.6292C56.4654 23.0629 56.0064 22.6038 55.44 22.6038H35C34.4336 22.6038 33.9746 23.0629 33.9746 23.6292C33.9746 24.1954 34.4336 24.6545 35 24.6545H55.44C56.0063 24.6545 56.4654 24.1954 56.4654 23.6292Z" fill="white"/>
<path d="M48.179 28.2327C48.179 27.6664 47.72 27.2073 47.1536 27.2073H35C34.4336 27.2073 33.9746 27.6664 33.9746 28.2327C33.9746 28.799 34.4336 29.2581 35 29.2581H47.1536C47.7199 29.2581 48.179 28.799 48.179 28.2327Z" fill="white"/>
<path d="M34.9998 33.9746H16.3552C15.7888 33.9746 15.3298 34.4337 15.3298 35C15.3298 35.5663 15.7888 36.0254 16.3552 36.0254H34.9998C35.5663 36.0254 36.0252 35.5663 36.0252 35C36.0252 34.4337 35.5663 33.9746 34.9998 33.9746Z" fill="white"/>
<path d="M36.0252 39.6036C36.0252 39.0373 35.5663 38.5782 34.9998 38.5782H16.3552C15.7888 38.5782 15.3298 39.0373 15.3298 39.6036C15.3298 40.1699 15.7888 40.629 16.3552 40.629H34.9998C35.5663 40.629 36.0252 40.1699 36.0252 39.6036Z" fill="white"/>
<path d="M27.7388 44.2072C27.7388 43.6409 27.2799 43.1818 26.7135 43.1818H16.3552C15.7888 43.1818 15.3298 43.6409 15.3298 44.2072C15.3298 44.7735 15.7888 45.2326 16.3552 45.2326H26.7135C27.2797 45.2326 27.7388 44.7735 27.7388 44.2072Z" fill="white"/>
</svg>
