<svg width="70" height="70" viewBox="0 0 70 70" fill="none" xmlns="http://www.w3.org/2000/svg">
<path d="M70 35C70 15.7015 54.2985 0 35 0C28.9495 0 23.0548 1.5671 17.8285 4.51613H13.5484V0H6.77419V14.324C2.34839 20.3531 0 27.4885 0 35C0 54.2997 15.7015 70 35 70C39.3005 70 43.4982 69.2266 47.4781 67.7069C49.7497 69.151 52.4368 70 55.3226 70C58.8429 70 62.2481 68.7344 64.9103 66.4368L63.4347 64.7274C61.1823 66.6716 58.3021 67.7419 55.3226 67.7419C48.475 67.7419 42.9032 62.1702 42.9032 55.3226C42.9032 48.475 48.475 42.9032 55.3226 42.9032C62.1702 42.9032 67.7419 48.475 67.7419 55.3226C67.7419 58.1847 66.7958 60.8752 65.004 63.1027L66.7642 64.5185C68.8506 61.9229 70 58.6577 70 55.3226C70 52.4345 69.1498 49.7474 67.7047 47.4747C69.2232 43.4937 70 39.3005 70 35ZM18.0645 11.2903H20.3226V13.5484V27.0968H18.0645V11.2903ZM13.5484 6.77419H15.8065V9.03226V27.0968H13.5484V6.77419ZM9.03226 2.25806H11.2903V4.51613V27.0968H9.03226V2.25806ZM33.871 67.7137C16.7142 67.1277 2.87226 53.2858 2.28629 36.129H33.871V67.7137ZM33.871 33.871H2.30323C2.48726 28.3748 4.01371 23.1226 6.77419 18.4405V29.3548H11.2903H13.5484H15.8065H18.0645H20.3226H22.5806H24.8387H27.0968H31.6129V18.0645H27.0968V13.5484H22.5806V9.03226H18.0645V6.99097C22.8415 4.09613 28.2698 2.48952 33.871 2.29758V33.871ZM22.5806 27.0968V15.8065H24.8387V18.0645V27.0968H22.5806ZM27.0968 27.0968V20.3226H29.3548V27.0968H27.0968ZM67.7137 33.871H58.0481L66.351 25.5681C67.1481 28.2111 67.6155 30.9942 67.7137 33.871ZM62.0245 16.5403L49.4144 29.1505L51.0108 30.7469L63.2608 18.4969C64.1369 19.9918 64.8968 21.5611 65.5313 23.1948L54.8552 33.871H47.8868L49.3466 32.4111L47.7502 30.8147L44.6939 33.871H37.7255L58.9208 12.6756C60.0476 13.8837 61.0874 15.1731 62.0245 16.5403ZM36.129 2.28629C39.0058 2.38452 41.7889 2.85194 44.4319 3.64903L36.129 11.9519V2.28629ZM36.129 25.3061L49.8502 11.585L48.2537 9.98855L36.129 22.1132V15.1448L46.8052 4.46871C48.4389 5.1021 50.0082 5.86194 51.5031 6.73919L49.6842 8.55806L51.2806 10.1545L53.4597 7.97548C54.8269 8.91258 56.1163 9.95129 57.3244 11.0792L36.129 32.2745V25.3061ZM55.3226 40.6452C47.2297 40.6452 40.6452 47.2297 40.6452 55.3226C40.6452 59.5689 42.4685 63.3873 45.36 66.0698C42.385 67.0623 39.2903 67.6098 36.129 67.716V36.129H67.716C67.6098 39.2892 67.0577 42.3816 66.0665 45.3566C63.3839 42.4663 59.5666 40.6452 55.3226 40.6452Z" fill="white"/>
<path d="M27.4324 40.9756L13.8839 54.5241L15.4806 56.1208L29.0291 42.5723L27.4324 40.9756Z" fill="white"/>
<path d="M25.9678 49.6774C24.1004 49.6774 22.5807 51.1971 22.5807 53.0645C22.5807 54.932 24.1004 56.4516 25.9678 56.4516C27.8352 56.4516 29.3549 54.932 29.3549 53.0645C29.3549 51.1971 27.8352 49.6774 25.9678 49.6774ZM25.9678 54.1936C25.3457 54.1936 24.8388 53.6878 24.8388 53.0645C24.8388 52.4413 25.3457 51.9355 25.9678 51.9355C26.5899 51.9355 27.0968 52.4413 27.0968 53.0645C27.0968 53.6878 26.5899 54.1936 25.9678 54.1936Z" fill="white"/>
<path d="M16.9354 40.6452C15.068 40.6452 13.5483 42.1649 13.5483 44.0323C13.5483 45.8997 15.068 47.4194 16.9354 47.4194C18.8029 47.4194 20.3225 45.8997 20.3225 44.0323C20.3225 42.1649 18.8029 40.6452 16.9354 40.6452ZM16.9354 45.1613C16.3133 45.1613 15.8064 44.6555 15.8064 44.0323C15.8064 43.4091 16.3133 42.9033 16.9354 42.9033C17.5575 42.9033 18.0645 43.4091 18.0645 44.0323C18.0645 44.6555 17.5575 45.1613 16.9354 45.1613Z" fill="white"/>
<path d="M55.3225 54.1936C54.0772 54.1936 53.0645 53.1808 53.0645 51.9355C53.0645 50.6902 54.0772 49.6774 55.3225 49.6774C56.5678 49.6774 57.5806 50.6902 57.5806 51.9355H59.8387C59.8387 49.8366 58.3935 48.0844 56.4516 47.5797V45.1613H54.1935V47.5797C52.2516 48.0844 50.8064 49.8366 50.8064 51.9355C50.8064 54.4262 52.8319 56.4516 55.3225 56.4516C56.5678 56.4516 57.5806 57.4644 57.5806 58.7097C57.5806 59.955 56.5678 60.9678 55.3225 60.9678C54.0772 60.9678 53.0645 59.955 53.0645 58.7097H50.8064C50.8064 60.8086 52.2516 62.5608 54.1935 63.0655V65.4839H56.4516V63.0655C58.3935 62.5608 59.8387 60.8086 59.8387 58.7097C59.8387 56.2191 57.8132 54.1936 55.3225 54.1936Z" fill="white"/>
<path d="M65.4839 54.1935H63.2258V56.4516H65.4839V54.1935Z" fill="white"/>
<path d="M47.4193 54.1935H45.1613V56.4516H47.4193V54.1935Z" fill="white"/>
</svg>
