<svg width="43" height="43" viewBox="0 0 43 43" fill="none" xmlns="http://www.w3.org/2000/svg">
<circle cx="21.5" cy="21.5" r="21.5" fill="white"/>
<circle cx="21.5" cy="21.5" r="18.5" fill="#C9BD80"/>
<path d="M31.556 20.2599L29.2619 19.6957C29.124 19.2609 28.9466 18.8391 28.7326 18.4357C29.077 17.8624 29.8009 16.6556 29.8009 16.6556C29.9394 16.425 29.9027 16.1298 29.7128 15.9398L28.0557 14.2827C27.8657 14.0921 27.571 14.0555 27.3398 14.1946L25.5568 15.2629C25.1557 15.0506 24.7363 14.8749 24.3043 14.7382L23.7401 12.4441C23.6748 12.1831 23.4408 12 23.1719 12H20.8281C20.5592 12 20.3246 12.1831 20.2599 12.444C20.2599 12.444 19.8691 14.0452 19.6963 14.7376C19.2357 14.8835 18.7905 15.0729 18.3665 15.3041L16.5177 14.1946C16.2865 14.0572 15.9924 14.0927 15.8019 14.2827L14.1448 15.9398C13.9548 16.1298 13.9182 16.425 14.0566 16.6556L15.1999 18.5651C15.0157 18.9284 14.8612 19.3066 14.7382 19.694L12.4441 20.2599C12.1831 20.3252 12 20.5592 12 20.8281V23.1719C12 23.4408 12.1831 23.6754 12.444 23.7401L14.7387 24.3043C14.8778 24.7454 15.0586 25.174 15.2777 25.5854L14.2546 27.2906C14.1162 27.5212 14.1528 27.8164 14.3428 28.0064L15.9999 29.6635C16.1893 29.8529 16.4845 29.8889 16.7157 29.7516C16.7157 29.7516 17.863 29.0639 18.4249 28.7274C18.8317 28.9443 19.2574 29.1234 19.6963 29.2624L20.26 31.5559C20.3246 31.8169 20.5592 32 20.8281 32H23.1719C23.4408 32 23.6748 31.8169 23.7401 31.556L24.3037 29.2624C24.7552 29.1194 25.19 28.9345 25.6038 28.7102C26.1811 29.0564 27.3398 29.7516 27.3398 29.7516C27.5704 29.8895 27.8657 29.8541 28.0556 29.6635L29.7127 28.0064C29.9027 27.8164 29.9393 27.5212 29.8009 27.2906L28.7474 25.5356C28.9551 25.1414 29.1274 24.7288 29.2618 24.3043L31.5559 23.7401C31.8169 23.6748 32 23.4408 32 23.1719V20.8281C32 20.5592 31.8169 20.3252 31.556 20.2599ZM22 26.1016C19.7386 26.1016 17.8984 24.2614 17.8984 22C17.8984 19.7386 19.7386 17.8984 22 17.8984C24.2614 17.8984 26.1016 19.7386 26.1016 22C26.1016 24.2614 24.2614 26.1016 22 26.1016Z" fill="#193A59"/>
</svg>
